<svg width="39" height="47" viewBox="0 0 39 47" fill="none" xmlns="http://www.w3.org/2000/svg">
<path d="M32.036 28.1161H6.96444L4.8473 40.8732C4.76755 41.361 4.77866 41.8639 4.87984 42.3457C4.98102 42.8274 5.16969 43.2763 5.4323 43.6596C5.69151 44.0447 6.0183 44.3559 6.38919 44.5708C6.76008 44.7853 7.16582 44.8984 7.5773 44.9018H31.4231C31.8346 44.8984 32.2402 44.7853 32.6112 44.5708C32.982 44.3559 33.3088 44.0447 33.5681 43.6596C33.8305 43.2763 34.0194 42.8274 34.1205 42.3457C34.2217 41.8639 34.2328 41.361 34.1531 40.8732L32.036 28.1161Z" fill="#79EE8D"/>
<path fill-rule="evenodd" clip-rule="evenodd" d="M14.5755 2.45821C15.8815 0.884245 17.653 0 19.5 0C21.347 0 23.1184 0.884245 24.4245 2.45821C25.7305 4.03216 26.4643 6.16694 26.4643 8.39286V15.1071C26.4643 15.5523 26.611 15.9793 26.8722 16.2941C27.1335 16.6089 27.4877 16.7857 27.8571 16.7857H32.0357C33.1439 16.7857 34.2069 17.3163 34.9905 18.2606C35.7741 19.205 36.2143 20.4859 36.2143 21.8214V28.5357C36.2143 29.4628 35.5906 30.2143 34.8214 30.2143H34.1595L35.8602 40.4616L35.8613 40.4677C35.9909 41.26 35.9728 42.0774 35.8084 42.8603C35.6446 43.6405 35.3396 44.3673 34.9153 44.9887C34.4949 45.6111 33.9656 46.1141 33.3653 46.4618C32.7625 46.811 32.1031 46.9946 31.4345 47H7.56577C6.89714 46.9946 6.23779 46.811 5.6351 46.4618C5.0347 46.1141 4.50538 45.6111 4.08491 44.9884C3.66067 44.3673 3.35575 43.6405 3.19195 42.8603C3.02756 42.0774 3.00948 41.26 3.13907 40.4677L3.14002 40.4616L4.84067 30.2143H4.17856C3.40932 30.2143 2.78571 29.4628 2.78571 28.5357V21.8214C2.78571 20.4859 3.22596 19.205 4.00958 18.2606C4.7932 17.3163 5.85604 16.7857 6.96428 16.7857H11.1428C11.5123 16.7857 11.8665 16.6089 12.1277 16.2941C12.389 15.9793 12.5357 15.5523 12.5357 15.1071V8.39286C12.5357 6.16694 13.2694 4.03216 14.5755 2.45821ZM25.4196 42.8036V36.5089C25.4196 35.35 24.6401 34.4107 23.6786 34.4107C22.717 34.4107 21.9375 35.35 21.9375 36.5089V42.8036H7.5844C7.43161 42.8016 7.28101 42.7593 7.14326 42.6794C7.0042 42.5988 6.88165 42.4823 6.78443 42.3379L6.7749 42.3238C6.67643 42.1801 6.60567 42.0116 6.56773 41.831C6.52993 41.6511 6.52564 41.4634 6.55514 41.2811L8.39176 30.2143H30.6086L32.4446 41.2788C32.4742 41.4607 32.4703 41.6511 32.4327 41.831C32.3945 42.0116 32.3237 42.1801 32.2254 42.3238L32.2159 42.3379C32.1187 42.4823 31.9961 42.5988 31.8571 42.6794C31.7192 42.7593 31.5688 42.8016 31.4159 42.8036H25.4196Z" fill="#010112"/>
</svg>
