<svg width="35" height="35" viewBox="0 0 35 35" fill="none" xmlns="http://www.w3.org/2000/svg">
<path d="M10.1172 28.9844V21.6016C10.1172 20.6955 10.8517 19.9609 11.7578 19.9609H23.2422C24.1483 19.9609 24.8828 20.6955 24.8828 21.6016V29.8047M24.8828 6.01563V9.29688C24.8828 10.203 24.1483 10.9375 23.2422 10.9375L11.7578 10.9375C10.8517 10.9375 10.1172 10.203 10.1172 9.29687L10.1172 4.375M29.8012 10.1137L24.8863 5.19877C24.3588 4.67132 23.6435 4.375 22.8975 4.375H7.1875C5.63418 4.375 4.375 5.63418 4.375 7.1875V27.8125C4.375 29.3658 5.63418 30.625 7.1875 30.625H27.8125C29.3658 30.625 30.625 29.3658 30.625 27.8125V12.1025C30.625 11.3565 30.3287 10.6412 29.8012 10.1137Z" stroke="white" stroke-width="2" stroke-linecap="round"/>
</svg>
